<svg xmlns="http://www.w3.org/2000/svg" version="1.1" xmlns:xlink="http://www.w3.org/1999/xlink" width="512" height="512" x="0" y="0" viewBox="0 0 91 91" style="enable-background:new 0 0 512 512" xml:space="preserve" class=""><g><path d="M45.51 69.7a1.29 1.29 0 0 1-.54-.12l-22.87-11a1.26 1.26 0 0 1-.7-1.12V32.84a1.24 1.24 0 0 1 1.78-1.12l22.87 11a1.26 1.26 0 0 1 .7 1.12v24.62a1.24 1.24 0 0 1-.58 1.05 1.21 1.21 0 0 1-.66.19zm-21.63-13 20.39 9.82V44.63l-20.39-9.82z" fill="#000000" opacity="1" data-original="#000000" class=""></path><path d="M45.51 45.07A1.25 1.25 0 0 1 45 45L22.13 34a1.23 1.23 0 0 1 0-2.23L45 20.72a1.25 1.25 0 0 1 1.07 0l22.87 11a1.24 1.24 0 0 1 .7 1.12 1.23 1.23 0 0 1-.7 1.11L46 45a1.24 1.24 0 0 1-.49.07zm-20-12.24 20 9.63 20-9.61-20-9.64z" fill="#000000" opacity="1" data-original="#000000" class=""></path><path d="M45.51 69.7a1.21 1.21 0 0 1-.66-.19 1.24 1.24 0 0 1-.58-1.05V43.85a1.24 1.24 0 0 1 .7-1.12l22.87-11a1.24 1.24 0 0 1 1.78 1.12v24.6a1.24 1.24 0 0 1-.7 1.12L46 69.58a1.24 1.24 0 0 1-.49.12zm1.24-25.07v21.86l20.39-9.82V34.81zM34.07 39.57a1.24 1.24 0 0 1-.54-2.35l22.88-11a1.24 1.24 0 0 1 1.65.58 1.23 1.23 0 0 1-.58 1.65l-22.87 11a1.32 1.32 0 0 1-.54.12zM37.14 50.37a1.25 1.25 0 0 1-.54-.12L29.85 47a1.23 1.23 0 0 1-.58-1.65 1.24 1.24 0 0 1 1.65-.58L37.67 48a1.24 1.24 0 0 1-.53 2.35z" fill="#000000" opacity="1" data-original="#000000" class=""></path><path d="M7.94 61.73A1.24 1.24 0 0 1 6.79 61 41.73 41.73 0 0 1 78 19.21a1.24 1.24 0 1 1-1.92 1.56A39.25 39.25 0 0 0 9.09 60a1.24 1.24 0 0 1-1.15 1.7zM45.56 87.09A41.69 41.69 0 0 1 13 71.56 1.24 1.24 0 0 1 15 70a39.25 39.25 0 0 0 66.78-39.64 1.24 1.24 0 1 1 2.29-.95 42 42 0 0 1-12.38 48.47 41.52 41.52 0 0 1-26.13 9.21z" fill="#000000" opacity="1" data-original="#000000" class=""></path><path d="M77.14 21.32H77l-11.55-1.25a1.24 1.24 0 0 1 .27-2.46L76 18.72 77.15 8.4a1.24 1.24 0 1 1 2.46.27l-1.24 11.55a1.24 1.24 0 0 1-.46.83 1.21 1.21 0 0 1-.77.27zM12.65 83.47h-.14a1.24 1.24 0 0 1-1.1-1.36l1.25-11.55a1.21 1.21 0 0 1 .45-.83 1.25 1.25 0 0 1 .91-.27l11.55 1.24a1.24 1.24 0 0 1-.26 2.46L15 72.05l-1.13 10.32a1.23 1.23 0 0 1-1.22 1.1z" fill="#000000" opacity="1" data-original="#000000" class=""></path></g></svg>