<svg xmlns="http://www.w3.org/2000/svg" version="1.1" xmlns:xlink="http://www.w3.org/1999/xlink" width="512" height="512" x="0" y="0" viewBox="0 0 64 64" style="enable-background:new 0 0 512 512" xml:space="preserve" class=""><g><path d="M7.575 29.62c-.583 4.844.386 9.92 2.515 14.073C-.848 59.511 5.672 65.412 21.21 54.795c6.481 3.416 15.316 3.523 21.889.253 4.865 3.174 9.206 5.157 12.194 5.157 5.258-.288 4.78-5.114 1.816-11.056.217.053 1.877.677 2.074.638 1.101.018 1.383-1.609.316-1.949l-4-1.333a.997.997 0 0 0-1.265.632l-1.333 4c-.394 1.249 1.454 1.877 1.897.633l.554-1.664c5.384 11.032-1.097 9.357-10.22 3.856C56.049 47.843 60.8 32.635 54.75 21.254c4.644-7.019 6.874-13 4.366-15.508-1.734-1.734-5.101-1.355-10.012 1.116l.586-1.76c.396-1.251-1.462-1.874-1.896-.63l-1.333 4a1 1 0 0 0 .632 1.264c-.018-.001 4.52 1.536 4.316 1.384 1.102.017 1.384-1.606.316-1.949l-1.663-.554c11.21-5.48 9.303 1.343 3.58 10.66C47.184 8.358 31.777 4.028 20.47 10.493 6.074-.593-2.59 4.697 9.695 22.031a24.795 24.795 0 0 0-2.12 7.59zm1.878 4.178c1.789 2.704 4.907 4.96 7.407 6.577.71.456 1.446.927 1.794 1.529.728 1.261-.28 3.033-.746 3.735-.646.957-1.375 1.857-1.93 2.886-3.766-3.85-6.194-9.01-6.525-14.727zM7.117 57.746c-1.06-1.06-.598-4.878 4.047-12.136a25.119 25.119 0 0 0 8.068 8.075C12.88 57.721 8.411 59.04 7.117 57.746zm25.293-2.292a22.86 22.86 0 0 1-9.29-1.967 109.4 109.4 0 0 0 7.303-5.65 142.33 142.33 0 0 1-1.504-1.327c-2.798 2.34-5.427 4.32-7.83 5.953a23.095 23.095 0 0 1-3.588-2.517c.468-1.076 1.384-2.165 2.072-3.199 2.338-3.386 1.462-6.425-1.626-8.05-3.184-1.995-7.324-5.263-8.362-9.035.243-1.991.74-3.904 1.46-5.707 7.63 10.606 19.482 22.374 30.098 29.772a22.87 22.87 0 0 1-8.733 1.727zm15.998-6.498c-.486-1.143-1.753-2.605-1.52-3.71.418-1.427 2.587-2.414 3.418-3.787 2.004-3.37.226-5.367 4.972-6.553-.585 5.488-3.109 10.402-6.87 14.05zm1.646-26.273c.876-.799 1.28-1.869 1.47-3.007.317.474.614.962.897 1.46-3.863 5.887-12.038 15.155-18.959 21.389.506.449 1.01.895 1.506 1.32 6.71-6.128 13.65-13.804 18.478-20.675a22.739 22.739 0 0 1 1.958 9.502c-1.32.676-2.888.848-4.083 1.852-1.222 1.014-1.564 2.403-1.866 3.629-.2.81-.387 1.574-.802 2.178-1.094 1.497-3.285 2.424-3.72 4.486-.486 2.159 1.284 3.758 1.887 5.545a23.076 23.076 0 0 1-3.58 2.375C33.95 46.896 18.2 31.299 12.006 21.86a23.108 23.108 0 0 1 3.605-5.091c.997 3.586 4.84 7.343 8.534 4.737.547-.425.952-1.033 1.45-1.414.499-.35 1.162-.373 1.615-.334 1.31.042 1.506 1.11 1.94 2.246.776 2.138 1.864 3.663 3.24 4.537 1.805 1.154 4.308.977 5.669-.708.672-.789.915-1.926 1.514-2.67.748-.857 2.117-.688 2.528-.614 2.509.658 5.836 2.171 7.954.134zM32.41 9.453c6.876 0 13.052 3.037 17.27 7.835.13 6.27-3.202 4.339-7.233 3.29-1.792-.323-3.391.14-4.382 1.27-.734.818-.965 1.926-1.563 2.727-2.301 2.049-4.596-.645-5.474-3.256-.378-1.03-.73-2.182-1.728-2.903-1.563-1.006-3.518-.837-4.86.043-.623.434-1.013 1.04-1.542 1.481-1.076.856-2.775.26-3.734-.785-.927-1.004-1.475-2.42-1.961-3.936 4.057-3.584 9.38-5.765 15.207-5.765zM6.225 7.162c1.083-1.083 5.03-.586 12.584 4.332a25.143 25.143 0 0 0-8.06 8.504C6.351 13.262 4.88 8.504 6.224 7.16z" fill="#000000" opacity="1" data-original="#000000" class=""></path></g></svg>